<svg xmlns="http://www.w3.org/2000/svg" xmlns:svg="http://www.w3.org/2000/svg" xmlns:xlink="http://www.w3.org/1999/xlink" id="svg2" width="512" height="512" version="1.0"><metadata id="metadata371"/><defs id="defs4"><linearGradient id="linearGradient3919"><stop style="stop-color:#e4e4e4;stop-opacity:1" id="stop3921" offset="0"/><stop id="stop3927" offset="1" style="stop-color:#fff;stop-opacity:1"/></linearGradient><linearGradient id="linearGradient4689"><stop style="stop-color:#5a9fd4;stop-opacity:1" id="stop4691" offset="0"/><stop style="stop-color:#306998;stop-opacity:1" id="stop4693" offset="1"/></linearGradient><filter id="filter3871" color-interpolation-filters="sRGB"><feGaussianBlur id="feGaussianBlur3873" stdDeviation="2.934"/></filter><filter id="filter3913" color-interpolation-filters="sRGB"><feGaussianBlur id="feGaussianBlur3915" stdDeviation=".753"/></filter><linearGradient id="linearGradient3925" x1="209.005" x2="200.967" y1="-22.632" y2="-2.039" gradientUnits="userSpaceOnUse" xlink:href="#linearGradient3919"/><linearGradient id="linearGradient4689-6"><stop style="stop-color:#5a9fd4;stop-opacity:1" id="stop4691-3" offset="0"/><stop style="stop-color:#306998;stop-opacity:1" id="stop4693-8" offset="1"/></linearGradient><linearGradient id="linearGradient3254" x1="486.5" x2="496.169" y1="184.541" y2="248.363" gradientUnits="userSpaceOnUse" xlink:href="#linearGradient4689-6"/><linearGradient id="linearGradient3256" x1="486.5" x2="496.169" y1="184.541" y2="248.363" gradientUnits="userSpaceOnUse" xlink:href="#linearGradient4689-6"/><linearGradient id="linearGradient3258" x1="485.78" x2="496.889" y1="185.981" y2="249.083" gradientUnits="userSpaceOnUse" xlink:href="#linearGradient4689-6"/><linearGradient id="linearGradient3260" x1="485.78" x2="496.889" y1="185.981" y2="249.083" gradientUnits="userSpaceOnUse" xlink:href="#linearGradient4689-6"/><linearGradient id="linearGradient3262" x1="484.34" x2="495.449" y1="182.381" y2="243.323" gradientUnits="userSpaceOnUse" xlink:href="#linearGradient4689-6"/><linearGradient id="linearGradient3264" x1="484.34" x2="495.449" y1="182.381" y2="243.323" gradientUnits="userSpaceOnUse" xlink:href="#linearGradient4689-6"/><linearGradient id="linearGradient3266" x1="323.06" x2="147.689" y1="147.101" y2="293.003" gradientUnits="userSpaceOnUse" xlink:href="#linearGradient4689-6"/><linearGradient id="linearGradient3314" x1="116.743" x2="190.064" y1="62.911" y2="149.744" gradientTransform="matrix(2.0214246,0,0,2.0214246,-62.20595,123.46639)" gradientUnits="userSpaceOnUse" xlink:href="#linearGradient4689"/><linearGradient id="linearGradient3316" x1="116.743" x2="190.064" y1="62.911" y2="149.744" gradientTransform="matrix(2.0214246,0,0,2.0214246,-62.20595,123.46639)" gradientUnits="userSpaceOnUse" xlink:href="#linearGradient4689"/></defs><g id="g3712"><path id="path3077" d="m 20,279.27442 88.35063,0 c 33.9881,0 77.49135,12.81451 77.49135,29.1526 L 185.84198,492 20,492 z" transform="matrix(2.2092365,0,0,2.2092365,35.81527,-594.94434)" style="fill:#666;fill-opacity:.99033813;stroke:#7d7d7d;stroke-width:1.08476496;stroke-linecap:round;stroke-miterlimit:4;stroke-opacity:1;stroke-dasharray:none;stroke-dashoffset:0;filter:url(#filter3871)"/><g id="g3706"><path id="path4338" d="m 79.999519,21.999517 194.983301,0 c 61.89823,0 171.01766,39.636924 171.01766,64.410449 l 0,405.590514 -366.000961,0 z" style="fill:#fff;fill-opacity:.99033813;stroke:#7d7d7d;stroke-width:1.99903858;stroke-linecap:round;stroke-miterlimit:4;stroke-opacity:1;stroke-dasharray:none;stroke-dashoffset:0"/><g id="g3936" transform="matrix(2.2092365,0,0,2.2092365,-68.579768,91.189025)"><path style="fill:#fff;stroke:#7d7d7d;stroke-width:1.08476496;stroke-linecap:round;stroke-linejoin:bevel;stroke-miterlimit:4;stroke-opacity:1;stroke-dasharray:none;filter:url(#filter3913)" id="path3875" d="m 155.51352,-30.823863 c 14.89296,0 39.4548,5.804798 45.99753,30.22261295 8.5133,-4.59641195 30.96516,-11.88953595 31.36664,-1.19791745"/><path id="path4384" d="m 155.51351,-31.318075 c 14.89296,0 39.4548,5.804798 45.99753,30.2226129 8.5133,-4.596412 30.96516,-11.8895359 31.36664,-1.1979175 0,-18.1489184 -57.91307,-29.0246954 -77.36417,-29.0246954 z" style="fill:url(#linearGradient3925);fill-opacity:1;stroke:#7d7d7d;stroke-width:1.08476496;stroke-linecap:round;stroke-linejoin:bevel;stroke-miterlimit:4;stroke-opacity:1;stroke-dasharray:none"/></g></g></g><g id="g3310" transform="matrix(1.0790603,0,0,1.0790603,-14.274157,-20.162214)"><path style="font-size:267.69692993px;font-style:normal;font-variant:normal;font-weight:400;font-stretch:normal;line-height:125%;letter-spacing:0;word-spacing:0;fill:#000;fill-opacity:1;stroke:none;font-family:Droid Sans;-inkscape-font-specification:Droid Sans" id="path3288" d="m 108.16615,245.07561 35.5535,0 86.53094,163.25853 0,-163.25853 25.61943,0 0,195.15211 -35.5535,0 -86.53094,-163.25853 0,163.25853 -25.61943,0 0,-195.15211"/><path style="font-size:267.69692993px;font-style:normal;font-variant:normal;font-weight:400;font-stretch:normal;line-height:125%;letter-spacing:0;word-spacing:0;fill:url(#linearGradient3316);fill-opacity:1;stroke:none;font-family:Droid Sans;-inkscape-font-specification:Droid Sans" id="path3277" d="m 106.65196,243.12939 35.5535,0 86.53094,163.25852 0,-163.25852 25.61944,0 0,195.1521 -35.5535,0 -86.53094,-163.25852 0,163.25852 -25.61944,0 0,-195.1521"/></g><g id="g3306" transform="matrix(1.0790603,0,0,1.0790603,-44.487846,-20.162214)"><path style="font-size:267.69692993px;font-style:normal;font-variant:normal;font-weight:400;font-stretch:normal;line-height:125%;letter-spacing:0;word-spacing:0;fill:#000;fill-opacity:1;stroke:none;font-family:Droid Sans;-inkscape-font-specification:Droid Sans" id="path3290" d="m 412.46226,367.16005 c -1.3e-4,-17.68951 -3.66004,-31.54491 -10.97975,-41.56622 -7.23281,-10.10822 -17.21044,-15.16239 -29.93291,-15.16252 -12.72265,1.3e-4 -22.74385,5.0543 -30.06362,15.16252 -7.23275,10.02131 -10.8491,23.87671 -10.84905,41.56622 -5e-5,17.68967 3.6163,31.58863 10.84905,41.69694 7.31977,10.02123 17.34097,15.03182 30.06362,15.03181 12.72247,10e-6 22.7001,-5.01058 29.93291,-15.03181 7.31971,-10.10831 10.97962,-24.00727 10.97975,-41.69694 M 330.63693,316.0519 c 5.05412,-8.71396 11.4154,-15.16238 19.08386,-19.34529 7.75547,-4.26975 16.9924,-6.4047 27.71082,-6.40485 17.77664,1.5e-4 32.19845,7.05855 43.26547,21.17524 11.15389,14.11695 16.7309,32.67795 16.73106,55.68305 -1.6e-4,23.00526 -5.57717,41.56626 -16.73106,55.68306 -11.06702,14.11683 -25.48883,21.17524 -43.26547,21.17524 -10.71842,0 -19.95535,-2.09138 -27.71082,-6.27414 -7.66846,-4.2699 -14.02974,-10.7619 -19.08386,-19.476 l 0,21.95951 -24.18161,0 0,-203.38692 24.18161,0 0,79.2111"/><path style="font-size:267.69692993px;font-style:normal;font-variant:normal;font-weight:400;font-stretch:normal;line-height:125%;letter-spacing:0;word-spacing:0;fill:url(#linearGradient3314);fill-opacity:1;stroke:none;font-family:Droid Sans;-inkscape-font-specification:Droid Sans" id="path3279" d="m 410.94808,365.21383 c -1.3e-4,-17.68952 -3.66005,-31.54491 -10.97976,-41.56623 -7.23281,-10.10822 -17.21043,-15.16239 -29.93291,-15.16252 -12.72265,1.3e-4 -22.74384,5.0543 -30.06362,15.16252 -7.23275,10.02132 -10.84909,23.87671 -10.84904,41.56623 -5e-5,17.68966 3.61629,31.58862 10.84904,41.69693 7.31978,10.02123 17.34097,15.03183 30.06362,15.03181 12.72248,2e-5 22.7001,-5.01058 29.93291,-15.03181 7.31971,-10.10831 10.97963,-24.00727 10.97976,-41.69693 m -81.82533,-51.10816 c 5.05412,-8.71396 11.4154,-15.16238 19.08386,-19.34528 7.75547,-4.26976 16.9924,-6.40471 27.71082,-6.40486 17.77663,1.5e-4 32.19844,7.05856 43.26547,21.17524 11.15389,14.11695 16.7309,32.67795 16.73106,55.68306 -1.6e-4,23.00525 -5.57717,41.56625 -16.73106,55.68305 -11.06703,14.11683 -25.48884,21.17524 -43.26547,21.17524 -10.71842,0 -19.95535,-2.09138 -27.71082,-6.27414 -7.66846,-4.2699 -14.02974,-10.76189 -19.08386,-19.476 l 0,21.95951 -24.18161,0 0,-203.38692 24.18161,0 0,79.2111"/></g><g id="g4227"><g style="fill:#000" id="g3992" transform="matrix(0.76400311,0,0,0.76400311,36.179593,5.3479839)"><g style="fill:#000;fill-opacity:1" id="g3994"><g id="text3996" style="font-size:147.90756226px;font-weight:400;fill:#000;fill-rule:evenodd;font-family:Droid Sans Mono"><path id="path4049" d="m 355.96093,272.06912 -38.13242,0 0,-128.9858 38.13242,0 0,10.76086 -24.98829,0 0,107.39186 24.98829,0 0,10.83308" style="font-size:147.90756226px;font-weight:400;fill:#000;fill-rule:evenodd;font-family:Droid Sans Mono"/></g><g id="text3998" style="font-size:147.90756226px;font-weight:400;fill:#000;fill-rule:evenodd;font-family:Droid Sans Mono"><path id="path4052" d="m 439.12013,261.23604 24.98829,0 0,-107.39186 -24.98829,0 0,-10.76086 38.13242,0 0,128.9858 -38.13242,0 0,-10.83308" style="font-size:147.90756226px;font-weight:400;fill:#000;fill-rule:evenodd;font-family:Droid Sans Mono"/></g><g id="text4000" style="font-size:147.90756226px;font-weight:400;fill:#000;fill-rule:evenodd;font-family:Droid Sans Mono"><path id="path4055" d="m 514.87478,165.86889 c 6.11462,8e-5 9.17195,3.3463 9.17201,10.03865 -6e-5,6.6925 -3.05739,10.03871 -9.17201,10.03865 -6.1147,6e-5 -9.17203,-3.34615 -9.172,-10.03865 -3e-5,-6.69235 3.0573,-10.03857 9.172,-10.03865 m 0,63.26515 c 6.11462,2e-5 9.17195,3.34623 9.17201,10.03865 -6e-5,6.74058 -3.05739,10.11087 -9.17201,10.11087 -6.1147,0 -9.17203,-3.37029 -9.172,-10.11087 -3e-5,-6.69242 3.0573,-10.03863 9.172,-10.03865" style="font-size:147.90756226px;font-weight:400;fill:#000;fill-rule:evenodd;font-family:Droid Sans Mono"/></g></g><g style="fill:#000" id="g4002"><g id="text4004" style="font-size:204.03166199px;font-weight:400;fill:#000;fill-rule:evenodd;font-family:Droid Sans Mono"><path id="path4058" d="m 151.39749,272.06912 -77.308871,0 0,-12.25385 29.389331,-1.9925 0,-117.1588 -29.389331,-1.9925 0,-12.25386 77.308871,0 0,12.25386 -29.2897,1.9925 0,117.1588 29.2897,1.9925 0,12.25385" style="font-size:204.03166199px;font-weight:400;fill:#000;fill-rule:evenodd;font-family:Droid Sans Mono"/><path id="path4060" d="m 210.07652,215.38259 0,56.68653 -18.53022,0 0,-145.65151 40.24843,0 c 34.13802,1.5e-4 51.20706,14.21328 51.20716,42.63943 -10e-5,14.54532 -4.61605,25.90254 -13.84785,34.0717 -9.16557,8.16929 -22.51528,12.25391 -40.04918,12.25385 l -19.02834,0 m 0,-15.74072 16.93622,0 c 13.15041,7e-5 22.54834,-2.39092 28.19383,-7.17299 5.71173,-4.78191 8.56764,-12.25376 8.56773,-22.41559 -9e-5,-18.5301 -11.22448,-27.7952 -33.67319,-27.79533 l -20.02459,0 0,57.38391" style="font-size:204.03166199px;font-weight:400;fill:#000;fill-rule:evenodd;font-family:Droid Sans Mono"/></g><g id="text4006" style="font-size:131.4621582px;font-weight:400;fill:#000;fill-rule:evenodd;font-family:Droid Sans Mono"><path id="path4063" d="m 367.00874,170.0062 12.06781,0 16.81792,41.9806 c 3.50904,8.77272 5.41336,14.97779 5.71295,18.61524 l 0.38515,0 c 0.98421,-4.79287 2.90992,-11.04074 5.77714,-18.74363 l 15.34153,-41.85221 12.13201,0 -30.49049,79.66042 c -2.86722,7.44609 -6.20512,13.03065 -10.01372,16.75373 -3.80867,3.76581 -9.07228,5.64873 -15.79087,5.64876 -3.68027,-3e-5 -7.27493,-0.36378 -10.784,-1.09124 l 0,-9.30762 c 2.6532,0.5135 5.56316,0.77026 8.72991,0.77028 4.10817,-2e-5 7.2963,-0.87729 9.56438,-2.63181 2.31083,-1.75455 4.36493,-4.77151 6.16229,-9.05086 l 3.72305,-9.62857 -29.33506,-71.12309" style="font-size:131.4621582px;font-weight:400;fill:#000;fill-rule:evenodd;font-family:Droid Sans Mono"/></g></g></g><g style="fill:url(#linearGradient3266);fill-opacity:1" id="g3938" transform="matrix(0.76400311,0,0,0.76400311,34.485122,4.1927795)"><g id="text111" style="font-size:147.90756226px;font-weight:400;fill:url(#linearGradient3256);fill-rule:evenodd;font-family:Droid Sans Mono"><path id="path4037" d="m 355.96093,272.06912 -38.13242,0 0,-128.9858 38.13242,0 0,10.76086 -24.98829,0 0,107.39186 24.98829,0 0,10.83308" style="font-size:147.90756226px;font-weight:400;fill:url(#linearGradient3254);fill-rule:evenodd;font-family:Droid Sans Mono"/></g><g id="text113" style="font-size:147.90756226px;font-weight:400;fill:url(#linearGradient3260);fill-rule:evenodd;font-family:Droid Sans Mono"><path id="path4043" d="m 439.12013,261.23604 24.98829,0 0,-107.39186 -24.98829,0 0,-10.76086 38.13242,0 0,128.9858 -38.13242,0 0,-10.83308" style="font-size:147.90756226px;font-weight:400;fill:url(#linearGradient3258);fill-rule:evenodd;font-family:Droid Sans Mono"/></g><g id="text115" style="font-size:147.90756226px;font-weight:400;fill:url(#linearGradient3264);fill-rule:evenodd;font-family:Droid Sans Mono"><path id="path4046" d="m 514.87478,165.86889 c 6.11462,8e-5 9.17195,3.3463 9.17201,10.03865 -6e-5,6.6925 -3.05739,10.03871 -9.17201,10.03865 -6.1147,6e-5 -9.17203,-3.34615 -9.172,-10.03865 -3e-5,-6.69235 3.0573,-10.03857 9.172,-10.03865 m 0,63.26515 c 6.11462,2e-5 9.17195,3.34623 9.17201,10.03865 -6e-5,6.74058 -3.05739,10.11087 -9.17201,10.11087 -6.1147,0 -9.17203,-3.37029 -9.172,-10.11087 -3e-5,-6.69242 3.0573,-10.03863 9.172,-10.03865" style="font-size:147.90756226px;font-weight:400;fill:url(#linearGradient3262);fill-rule:evenodd;font-family:Droid Sans Mono"/></g></g><g style="fill:#4d4d4d;fill-opacity:1" id="g3945" transform="matrix(0.76400311,0,0,0.76400311,34.485122,4.1927795)"><g id="text109" style="font-size:204.03166199px;font-weight:400;fill:#4d4d4d;fill-opacity:1;fill-rule:evenodd;font-family:Droid Sans Mono"><path id="path4032" d="m 151.39749,272.06912 -77.308871,0 0,-12.25385 29.389331,-1.9925 0,-117.1588 -29.389331,-1.9925 0,-12.25386 77.308871,0 0,12.25386 -29.2897,1.9925 0,117.1588 29.2897,1.9925 0,12.25385" style="font-size:204.03166199px;font-weight:400;fill:#4d4d4d;fill-opacity:1;fill-rule:evenodd;font-family:Droid Sans Mono"/><path id="path4034" d="m 210.07652,215.38259 0,56.68653 -18.53022,0 0,-145.65151 40.24843,0 c 34.13802,1.5e-4 51.20706,14.21328 51.20716,42.63943 -10e-5,14.54532 -4.61605,25.90254 -13.84785,34.0717 -9.16557,8.16929 -22.51528,12.25391 -40.04918,12.25385 l -19.02834,0 m 0,-15.74072 16.93622,0 c 13.15041,7e-5 22.54834,-2.39092 28.19383,-7.17299 5.71173,-4.78191 8.56764,-12.25376 8.56773,-22.41559 -9e-5,-18.5301 -11.22448,-27.7952 -33.67319,-27.79533 l -20.02459,0 0,57.38391" style="font-size:204.03166199px;font-weight:400;fill:#4d4d4d;fill-opacity:1;fill-rule:evenodd;font-family:Droid Sans Mono"/></g><g id="text117" style="font-size:131.4621582px;font-weight:400;fill:#4d4d4d;fill-opacity:1;fill-rule:evenodd;font-family:Droid Sans Mono"><path id="path4040" d="m 367.00874,170.0062 12.06781,0 16.81792,41.9806 c 3.50904,8.77272 5.41336,14.97779 5.71295,18.61524 l 0.38515,0 c 0.98421,-4.79287 2.90992,-11.04074 5.77714,-18.74363 l 15.34153,-41.85221 12.13201,0 -30.49049,79.66042 c -2.86722,7.44609 -6.20512,13.03065 -10.01372,16.75373 -3.80867,3.76581 -9.07228,5.64873 -15.79087,5.64876 -3.68027,-3e-5 -7.27493,-0.36378 -10.784,-1.09124 l 0,-9.30762 c 2.6532,0.5135 5.56316,0.77026 8.72991,0.77028 4.10817,-2e-5 7.2963,-0.87729 9.56438,-2.63181 2.31083,-1.75455 4.36493,-4.77151 6.16229,-9.05086 l 3.72305,-9.62857 -29.33506,-71.12309" style="font-size:131.4621582px;font-weight:400;fill:#4d4d4d;fill-opacity:1;fill-rule:evenodd;font-family:Droid Sans Mono"/></g></g></g></svg>